<svg width="24" height="25" viewBox="0 0 24 25" fill="none" xmlns="http://www.w3.org/2000/svg">
<path fill-rule="evenodd" clip-rule="evenodd" d="M12.9107 12.9184L18.8857 6.94337C19.5981 6.23097 20.7532 6.23097 21.4656 6.94337V6.94337C22.178 7.65578 22.178 8.81082 21.4656 9.52322L15.4906 15.4982C15.1081 15.8807 14.6119 16.1288 14.0764 16.2053L12.6941 16.4028C12.5046 16.4299 12.3135 16.3662 12.1781 16.2308C12.0428 16.0955 11.979 15.9043 12.0061 15.7148L12.2036 14.3326C12.2801 13.7971 12.5282 13.3009 12.9107 12.9184V12.9184Z" stroke="#C8C7C8" stroke-width="1.5" stroke-linecap="round" stroke-linejoin="round"/>
<path d="M9 16.4091H7" stroke="#C8C7C8" stroke-width="1.5" stroke-linecap="round" stroke-linejoin="round"/>
<path d="M9 12.9091H7" stroke="#C8C7C8" stroke-width="1.5" stroke-linecap="round" stroke-linejoin="round"/>
<path d="M12 9.40906H7" stroke="#C8C7C8" stroke-width="1.5" stroke-linecap="round" stroke-linejoin="round"/>
<path d="M19 6.83889V5.40906C19 4.30449 18.1046 3.40906 17 3.40906H5C3.89543 3.40906 3 4.30449 3 5.40906V19.4091C3 20.5136 3.89543 21.4091 5 21.4091H17C18.1046 21.4091 19 20.5136 19 19.4091V11.9889" stroke="#C8C7C8" stroke-width="1.5" stroke-linecap="round" stroke-linejoin="round"/>
</svg>
