<svg width="24" height="25" viewBox="0 0 24 25" fill="none" xmlns="http://www.w3.org/2000/svg">
<path d="M4.81641 17.7971C6.46241 19.9831 9.06941 21.4091 12.0004 21.4091C16.9504 21.4091 21.0004 17.3591 21.0004 12.4091C21.0004 7.45906 16.9504 3.40906 12.0004 3.40906" stroke="#C8C7C8" stroke-width="1.5" stroke-linecap="round" stroke-linejoin="round"/>
<path d="M4.816 17.7971C3.682 16.2911 3 14.4281 3 12.4091C3 7.45906 7.05 3.40906 12 3.40906" stroke="#C8C7C8" stroke-width="1.5" stroke-linecap="round" stroke-linejoin="round" stroke-dasharray="0"/>
<path d="M11.75 7.40906V8.65906" stroke="#C8C7C8" stroke-width="1.5" stroke-linecap="round" stroke-linejoin="round"/>
<path d="M11.75 17.4091V16.1591" stroke="#C8C7C8" stroke-width="1.5" stroke-linecap="round" stroke-linejoin="round"/>
<path d="M14.237 10.4091C14.172 9.43306 13.367 8.65906 12.375 8.65906H11.005C10.035 8.65906 9.25 9.44506 9.25 10.4141C9.25 11.2191 9.798 11.9211 10.578 12.1171L12.921 12.7051C13.702 12.9011 14.249 13.6031 14.249 14.4081C14.249 15.3781 13.463 16.1631 12.494 16.1631H11.124C10.13 16.1631 9.325 15.3871 9.261 14.4091" stroke="#C8C7C8" stroke-width="1.5" stroke-linecap="round" stroke-linejoin="round"/>
</svg>
