<svg width="24" height="25" viewBox="0 0 24 25" fill="none" xmlns="http://www.w3.org/2000/svg">
<path fill-rule="evenodd" clip-rule="evenodd" d="M3 11.7001C3 14.3831 4.42 16.7451 6.599 18.2341C6.598 19.0891 6.6 20.2411 6.6 21.4501L10.131 19.7031C10.735 19.8191 11.359 19.8821 12 19.8821C16.952 19.8821 21 16.2391 21 11.7001C21 7.16106 16.952 3.51806 12 3.51806C7.048 3.51806 3 7.16106 3 11.7001Z" stroke="#C8C7C8" stroke-width="1.5" stroke-linecap="round" stroke-linejoin="round"/>
<path d="M11.8992 12.7371V12.5301C11.8992 11.8521 12.3182 11.4851 12.7382 11.2031C13.1482 10.9271 13.5592 10.5671 13.5592 9.90306C13.5592 8.98606 12.8162 8.24406 11.9002 8.24406C10.9842 8.24406 10.2402 8.98506 10.2402 9.90206" stroke="#C8C7C8" stroke-width="1.5" stroke-linecap="round" stroke-linejoin="round"/>
<path d="M11.8984 15.0761C11.8154 15.0761 11.7484 15.1431 11.7494 15.2261C11.7494 15.3091 11.8164 15.3761 11.8994 15.3761C11.9824 15.3761 12.0494 15.3091 12.0494 15.2261C12.0494 15.1431 11.9834 15.0761 11.8984 15.0761" stroke="#C8C7C8" stroke-width="1.5" stroke-linecap="round" stroke-linejoin="round"/>
</svg>
