<svg width="24" height="24" viewBox="0 0 24 24" fill="none" xmlns="http://www.w3.org/2000/svg">
<path d="M18.5033 6.95113L16.1375 3.79672C15.5003 2.94719 14.3105 2.74338 13.4269 3.33243L7.92871 6.99791" stroke="#C8C7C8" stroke-width="1.5" stroke-linecap="round" stroke-linejoin="round"/>
<path fill-rule="evenodd" clip-rule="evenodd" d="M18.503 11.4998H21.004C21.5566 11.4998 22.0045 11.9477 22.0045 12.5002V15.5015C22.0045 16.054 21.5566 16.5019 21.004 16.5019H18.503C17.1217 16.5019 16.002 15.3821 16.002 14.0008V14.0008C16.002 12.6195 17.1217 11.4998 18.503 11.4998V11.4998Z" stroke="#C8C7C8" stroke-width="1.5" stroke-linecap="round" stroke-linejoin="round"/>
<path d="M21.0036 11.4998V9.49895C21.0036 8.11766 19.8838 6.99791 18.5026 6.99791H5.49714C4.11585 6.99791 2.99609 8.11766 2.99609 9.49895V18.5027C2.99609 19.884 4.11585 21.0037 5.49714 21.0037H18.5026C19.8838 21.0037 21.0036 19.884 21.0036 18.5027V16.5019" stroke="#C8C7C8" stroke-width="1.5" stroke-linecap="round" stroke-linejoin="round"/>
</svg>
